<svg width="45" height="45" viewBox="0 0 45 45" fill="none" xmlns="http://www.w3.org/2000/svg">
<path d="M11.0796 0.0293284C10.9614 0.0302659 10.8433 0.033266 10.728 0.0380472C8.88207 0.11436 7.38769 0.674235 6.35691 1.70511C4.29516 3.76667 4.12435 7.68467 5.91441 12.5508C7.70447 17.4169 11.4052 23.066 16.5727 28.2333C21.7402 33.4008 27.3892 37.1015 32.2552 38.8917C37.1213 40.6816 41.0423 40.5108 43.1039 38.4492C45.1655 36.3876 45.3333 32.4696 43.5433 27.6035C41.7533 22.7374 38.0552 17.0852 32.8881 11.918C27.7208 6.75073 22.0686 3.05277 17.2025 1.2628C14.9215 0.423547 12.8507 0.0143284 11.0796 0.0293284ZM14.358 4.91895C18.6093 4.87395 25.0399 8.29133 30.7788 14.0301C37.9928 21.2442 41.5368 29.552 39.1488 33.2489C37.6162 28.0275 33.8291 21.985 28.3265 16.4823C22.8251 10.9806 16.7841 7.19323 11.5629 5.66023C12.3186 5.17255 13.2661 4.93048 14.3579 4.91905L14.358 4.91895ZM3.00525 5.0653L1.97982 6.09092C0.94988 7.12095 0.399849 8.56124 0.321755 10.409C0.243568 12.257 0.66113 14.4853 1.56104 16.913C3.36057 21.7689 7.06857 27.4099 12.2338 32.5753C17.3992 37.7405 23.0401 41.4484 27.896 43.248C30.3237 44.148 32.5519 44.5654 34.3998 44.4874C36.2476 44.4092 37.6882 43.859 38.7181 42.8291L39.7465 41.8007C37.3753 42.0952 34.5887 41.6155 31.6517 40.535C26.4673 38.628 20.6556 34.7947 15.3336 29.4725C10.0114 24.1505 6.17813 18.3418 4.27107 13.1572C3.19144 10.2227 2.71238 7.43605 3.00544 5.06539L3.00525 5.0653ZM10.2444 7.11617C15.1916 8.35367 21.4497 12.084 27.0872 17.7216C32.7247 23.3594 36.4553 29.6178 37.6927 34.5645C33.8466 36.5477 25.8139 33.0043 18.8107 26.0011C11.8061 18.9965 8.2591 10.9613 10.2443 7.11627L10.2444 7.11617Z" fill="#C25202"/>
</svg>
